# ProBuilder 4.5.2
# https://unity3d.com/unity/features/worldbuilding/probuilder
# 5/23/2025 1:11:22 PM

mtllib ./Diamond.mtl
o Diamond

g Diamond
v 0.2025918 -6.445104E-05 0.2907372
v -0.0006310247 -0.3558584 0.001019787
v 0.289812 0.0007219726 -0.2039132
v 0.004363001 0.3581161 -0.0007491638
v -0.2025918 0.0007219364 -0.2907372
v -0.01688299 -0.3581161 -0.004177775
v -0.289812 -6.448726E-05 0.2039132
v -0.01160491 0.3581161 -0.003052541

vt -0.5024188 0.08270294
vt -0.002227496 -0.6715794
vt 0.5021435 0.08437016
vt 0.002988525 0.6770738
vt -0.5024114 -0.0774603
vt -0.002374248 -0.6850916
vt 0.5021509 -0.07911789
vt -0.001988219 0.6758404
vt 0.2882763 -0.25
vt -0.5863521 -0.017352
vt 0.2882763 0.25
vt -0.5852723 -0.0004443874
vt 0.5799798 0.008699217
vt -0.295956 -0.2243959
vt 0.5736249 0.02563932
vt -0.295956 0.2746449
vt 0.2892253 -0.25
vt -0.5868195 -0.01195864
vt 0.2892252 0.25
vt -0.5874003 0.00416666
vt 0.5798783 0.00936557
vt -0.2925181 -0.2289821
vt 0.5792885 0.02551162
vt -0.2925181 0.2703752

vn 0.9302213 -0.001688823 0.1640204
vn 0.9291099 -0.1658325 0.1635635
vn 0.9313327 0.1624549 0.1644773
vn -0.9355887 0.001744136 -0.1649667
vn -0.936675 -0.1543376 -0.1654064
vn -0.9345024 0.1578259 -0.164527
vn 0.07124353 -0.2857876 -0.4040418
vn 0.2410759 -0.2978395 -0.343392
vn 0.4109082 -0.3098914 -0.2827423
vn -0.1309722 -0.2941502 0.3862596
vn -0.101005 -0.2908151 0.3945676
vn -0.07103776 -0.28748 0.4028758
vn -0.07099802 0.2878067 0.4026494
vn -0.04568346 0.290696 0.4046156
vn -0.02036891 0.2935853 0.4065818
vn 0.02042728 0.2919798 -0.4077468
vn 0.04580293 0.2891512 -0.4057106
vn 0.07117858 0.2863226 -0.4036744

usemtl new_red
f 4/4/3 1/1/1 2/2/2 3/3/1
f 5/5/4 6/6/5 7/7/4 8/8/6
f 3/11/8 2/12/9 6/10/8 5/9/7
f 2/15/11 1/16/12 7/14/11 6/13/10
f 1/19/14 4/20/15 8/18/14 7/17/13
f 4/23/17 3/24/18 5/22/17 8/21/16

